<?xml version="1.0" encoding="UTF-8" standalone="no"?>
<!-- Created with Inkscape (http://www.inkscape.org/) -->

<svg
   xmlns:ns0="http://www.iki.fi/pav/software/textext/"
   xmlns:dc="http://purl.org/dc/elements/1.1/"
   xmlns:cc="http://creativecommons.org/ns#"
   xmlns:rdf="http://www.w3.org/1999/02/22-rdf-syntax-ns#"
   xmlns:svg="http://www.w3.org/2000/svg"
   xmlns="http://www.w3.org/2000/svg"
   xmlns:xlink="http://www.w3.org/1999/xlink"
   xmlns:sodipodi="http://sodipodi.sourceforge.net/DTD/sodipodi-0.dtd"
   xmlns:inkscape="http://www.inkscape.org/namespaces/inkscape"
   width="131.44496mm"
   height="67.909752mm"
   viewBox="0 0 131.44496 67.909753"
   version="1.1"
   id="svg8"
   inkscape:version="0.91 r13725"
   sodipodi:docname="learning_rule.svg">
  <sodipodi:namedview
     id="base"
     pagecolor="#ffffff"
     bordercolor="#666666"
     borderopacity="1.0"
     inkscape:pageopacity="0.0"
     inkscape:pageshadow="2"
     inkscape:zoom="5.6568542"
     inkscape:cx="118.46992"
     inkscape:cy="61.578528"
     inkscape:document-units="mm"
     inkscape:current-layer="layer1"
     showgrid="false"
     inkscape:window-width="1920"
     inkscape:window-height="1033"
     inkscape:window-x="2560"
     inkscape:window-y="360"
     inkscape:window-maximized="1"
     fit-margin-top="1"
     fit-margin-left="1"
     fit-margin-right="1"
     fit-margin-bottom="1"
     showguides="false" />
  <defs
     id="defs2">
    <marker
       inkscape:isstock="true"
       style="overflow:visible"
       id="marker11304"
       refX="0"
       refY="0"
       orient="auto"
       inkscape:stockid="TriangleOutS">
      <path
         inkscape:connector-curvature="0"
         transform="scale(0.2,0.2)"
         style="fill:#666666;fill-opacity:1;fill-rule:evenodd;stroke:#666666;stroke-width:1pt;stroke-opacity:1"
         d="m 5.77,0 -8.65,5 0,-10 8.65,5 z"
         id="path11306" />
    </marker>
    <marker
       inkscape:isstock="true"
       style="overflow:visible"
       id="marker11258"
       refX="0"
       refY="0"
       orient="auto"
       inkscape:stockid="TriangleInS">
      <path
         inkscape:connector-curvature="0"
         transform="scale(-0.2,-0.2)"
         style="fill:#666666;fill-opacity:1;fill-rule:evenodd;stroke:#666666;stroke-width:1pt;stroke-opacity:1"
         d="m 5.77,0 -8.65,5 0,-10 8.65,5 z"
         id="path11260" />
    </marker>
    <pattern
       inkscape:stockid="Wavy white"
       id="Wavywhite"
       height="5.1805778"
       width="30.066020"
       patternUnits="userSpaceOnUse"
       inkscape:collect="always">
      <path
         id="path11036"
         d="M 7.597,0.061 C 5.079,-0.187 2.656,0.302 -0.01,1.788 L -0.01,3.061 C 2.773,1.431 5.173,1.052 7.472,1.280 C 9.770,1.508 11.969,2.361 14.253,3.218 C 18.820,4.931 23.804,6.676 30.066,3.061 L 30.062,1.788 C 23.622,5.497 19.246,3.770 14.691,2.061 C 12.413,1.207 10.115,0.311 7.597,0.061 z "
         style="fill:white;stroke:none;" />
    </pattern>
    <marker
       inkscape:stockid="TriangleOutS"
       orient="auto"
       refY="0"
       refX="0"
       id="marker9492"
       style="overflow:visible"
       inkscape:isstock="true">
      <path
         id="path9494"
         d="m 5.77,0 -8.65,5 0,-10 8.65,5 z"
         style="fill:#666666;fill-opacity:1;fill-rule:evenodd;stroke:#666666;stroke-width:1pt;stroke-opacity:1"
         transform="scale(0.2,0.2)"
         inkscape:connector-curvature="0" />
    </marker>
    <marker
       inkscape:stockid="TriangleInS"
       orient="auto"
       refY="0"
       refX="0"
       id="marker9450"
       style="overflow:visible"
       inkscape:isstock="true">
      <path
         id="path9452"
         d="m 5.77,0 -8.65,5 0,-10 8.65,5 z"
         style="fill:#666666;fill-opacity:1;fill-rule:evenodd;stroke:#666666;stroke-width:1pt;stroke-opacity:1"
         transform="scale(-0.2,-0.2)"
         inkscape:connector-curvature="0" />
    </marker>
    <marker
       inkscape:stockid="TriangleOutS"
       orient="auto"
       refY="0"
       refX="0"
       id="marker9256"
       style="overflow:visible"
       inkscape:isstock="true"
       inkscape:collect="always">
      <path
         id="path9258"
         d="m 5.77,0 -8.65,5 0,-10 8.65,5 z"
         style="fill:#666666;fill-opacity:1;fill-rule:evenodd;stroke:#666666;stroke-width:1pt;stroke-opacity:1"
         transform="scale(0.2,0.2)"
         inkscape:connector-curvature="0" />
    </marker>
    <marker
       inkscape:stockid="TriangleInS"
       orient="auto"
       refY="0"
       refX="0"
       id="TriangleInS"
       style="overflow:visible"
       inkscape:isstock="true"
       inkscape:collect="always">
      <path
         id="path4331"
         d="m 5.77,0 -8.65,5 0,-10 8.65,5 z"
         style="fill:#666666;fill-opacity:1;fill-rule:evenodd;stroke:#666666;stroke-width:1pt;stroke-opacity:1"
         transform="scale(-0.2,-0.2)"
         inkscape:connector-curvature="0" />
    </marker>
    <marker
       inkscape:stockid="TriangleOutS"
       orient="auto"
       refY="0"
       refX="0"
       id="marker6084"
       style="overflow:visible"
       inkscape:isstock="true">
      <path
         id="path6086"
         d="m 5.77,0 -8.65,5 0,-10 8.65,5 z"
         style="fill:#666666;fill-opacity:1;fill-rule:evenodd;stroke:#666666;stroke-width:1pt;stroke-opacity:1"
         transform="scale(0.2,0.2)"
         inkscape:connector-curvature="0" />
    </marker>
    <marker
       inkscape:stockid="TriangleOutS"
       orient="auto"
       refY="0"
       refX="0"
       id="marker5402"
       style="overflow:visible"
       inkscape:isstock="true">
      <path
         id="path5404"
         d="m 5.77,0 -8.65,5 0,-10 8.65,5 z"
         style="fill:#000000;fill-opacity:1;fill-rule:evenodd;stroke:#000000;stroke-width:1pt;stroke-opacity:1"
         transform="scale(0.2,0.2)"
         inkscape:connector-curvature="0" />
    </marker>
    <marker
       inkscape:collect="always"
       inkscape:isstock="true"
       style="overflow:visible"
       id="TriangleOutS"
       refX="0"
       refY="0"
       orient="auto"
       inkscape:stockid="TriangleOutS">
      <path
         transform="scale(0.2,0.2)"
         style="fill:#666666;fill-opacity:1;fill-rule:evenodd;stroke:#666666;stroke-width:1pt;stroke-opacity:1"
         d="m 5.77,0 -8.65,5 0,-10 8.65,5 z"
         id="path4340"
         inkscape:connector-curvature="0" />
    </marker>
    <marker
       inkscape:isstock="true"
       style="overflow:visible"
       id="TriangleOutM"
       refX="0"
       refY="0"
       orient="auto"
       inkscape:stockid="TriangleOutM">
      <path
         transform="scale(0.4,0.4)"
         style="fill:#000000;fill-opacity:1;fill-rule:evenodd;stroke:#000000;stroke-width:1pt;stroke-opacity:1"
         d="m 5.77,0 -8.65,5 0,-10 8.65,5 z"
         id="path4337"
         inkscape:connector-curvature="0" />
    </marker>
    <marker
       inkscape:isstock="true"
       style="overflow:visible"
       id="marker4528"
       refX="0"
       refY="0"
       orient="auto"
       inkscape:stockid="Arrow1Sstart">
      <path
         transform="matrix(0.2,0,0,0.2,1.2,0)"
         style="fill:#666666;fill-opacity:1;fill-rule:evenodd;stroke:#666666;stroke-width:1pt;stroke-opacity:1"
         d="M 0,0 5,-5 -12.5,0 5,5 0,0 Z"
         id="path4530"
         inkscape:connector-curvature="0" />
    </marker>
    <marker
       inkscape:stockid="Arrow1Sstart"
       orient="auto"
       refY="0"
       refX="0"
       id="Arrow1Sstart"
       style="overflow:visible"
       inkscape:isstock="true"
       inkscape:collect="always">
      <path
         id="path4204"
         d="M 0,0 5,-5 -12.5,0 5,5 0,0 Z"
         style="fill:#666666;fill-opacity:1;fill-rule:evenodd;stroke:#666666;stroke-width:1pt;stroke-opacity:1"
         transform="matrix(0.2,0,0,0.2,1.2,0)"
         inkscape:connector-curvature="0" />
    </marker>
    <marker
       inkscape:isstock="true"
       style="overflow:visible"
       id="marker4468"
       refX="0"
       refY="0"
       orient="auto"
       inkscape:stockid="Arrow2Send">
      <path
         transform="matrix(-0.3,0,0,-0.3,0.69,0)"
         d="M 8.7185878,4.0337352 -2.2072895,0.01601326 8.7185884,-4.0017078 c -1.7454984,2.3720609 -1.7354408,5.6174519 -6e-7,8.035443 z"
         style="fill:#666666;fill-opacity:1;fill-rule:evenodd;stroke:#666666;stroke-width:0.625;stroke-linejoin:round;stroke-opacity:1"
         id="path4470"
         inkscape:connector-curvature="0" />
    </marker>
    <marker
       inkscape:stockid="Arrow2Send"
       orient="auto"
       refY="0"
       refX="0"
       id="Arrow2Send"
       style="overflow:visible"
       inkscape:isstock="true"
       inkscape:collect="always">
      <path
         id="path4225"
         style="fill:#666666;fill-opacity:1;fill-rule:evenodd;stroke:#666666;stroke-width:0.625;stroke-linejoin:round;stroke-opacity:1"
         d="M 8.7185878,4.0337352 -2.2072895,0.01601326 8.7185884,-4.0017078 c -1.7454984,2.3720609 -1.7354408,5.6174519 -6e-7,8.035443 z"
         transform="matrix(-0.3,0,0,-0.3,0.69,0)"
         inkscape:connector-curvature="0" />
    </marker>
    <marker
       inkscape:collect="always"
       inkscape:isstock="true"
       style="overflow:visible"
       id="TriangleOutS-6"
       refX="0"
       refY="0"
       orient="auto"
       inkscape:stockid="TriangleOutS">
      <path
         transform="scale(0.2,0.2)"
         style="fill:#666666;fill-opacity:1;fill-rule:evenodd;stroke:#666666;stroke-width:1pt;stroke-opacity:1"
         d="m 5.77,0 -8.65,5 0,-10 8.65,5 z"
         id="path4340-2"
         inkscape:connector-curvature="0" />
    </marker>
    <marker
       inkscape:stockid="TriangleOutS"
       orient="auto"
       refY="0"
       refX="0"
       id="marker6084-9"
       style="overflow:visible"
       inkscape:isstock="true">
      <path
         id="path6086-1"
         d="m 5.77,0 -8.65,5 0,-10 8.65,5 z"
         style="fill:#666666;fill-opacity:1;fill-rule:evenodd;stroke:#666666;stroke-width:1pt;stroke-opacity:1"
         transform="scale(0.2,0.2)"
         inkscape:connector-curvature="0" />
    </marker>
    <defs
       id="defs2334">
      <g
         id="g2332">
        <symbol
           style="overflow:visible"
           overflow="visible"
           id="textext-403633a0-0">
          <path
             inkscape:connector-curvature="0"
             style="stroke:none"
             d=""
             id="path2317" />
        </symbol>
        <symbol
           style="overflow:visible"
           overflow="visible"
           id="textext-403633a0-1">
          <path
             inkscape:connector-curvature="0"
             style="stroke:none"
             d="m 4.40625,-6.953125 c -0.0625,-0.140625 -0.09375,-0.1875 -0.265625,-0.1875 -0.15625,0 -0.1875,0.046875 -0.25,0.1875 l -3.375,6.75 C 0.46875,-0.109375 0.46875,-0.09375 0.46875,-0.078125 0.46875,0 0.53125,0 0.6875,0 l 6.921875,0 c 0.15625,0 0.21875,0 0.21875,-0.078125 0,-0.015625 0,-0.03125 -0.046875,-0.125 z m -0.578125,0.8125 2.6875,5.390625 -5.375,0 z m 0,0"
             id="path2320" />
        </symbol>
        <symbol
           style="overflow:visible"
           overflow="visible"
           id="textext-403633a0-2">
          <path
             inkscape:connector-curvature="0"
             style="stroke:none"
             d=""
             id="path2323" />
        </symbol>
        <symbol
           style="overflow:visible"
           overflow="visible"
           id="textext-403633a0-3">
          <path
             inkscape:connector-curvature="0"
             style="stroke:none"
             d="M 4.609375,-3.375 C 4.65625,-3.59375 4.75,-3.96875 4.75,-4.03125 c 0,-0.171875 -0.140625,-0.265625 -0.28125,-0.265625 -0.125,0 -0.296875,0.078125 -0.375,0.28125 -0.03125,0.0625 -0.5,1.96875 -0.5625,2.234375 C 3.453125,-1.484375 3.4375,-1.3125 3.4375,-1.125 c 0,0.109375 0,0.125 0.015625,0.171875 -0.234375,0.53125 -0.53125,0.84375 -0.921875,0.84375 -0.796875,0 -0.796875,-0.734375 -0.796875,-0.90625 0,-0.3125 0.046875,-0.703125 0.515625,-1.9375 0.109375,-0.296875 0.171875,-0.4375 0.171875,-0.640625 0,-0.4375 -0.328125,-0.8125 -0.8125,-0.8125 -0.953125,0 -1.3125,1.453125 -1.3125,1.53125 0,0.109375 0.09375,0.109375 0.109375,0.109375 0.109375,0 0.109375,-0.03125 0.15625,-0.1875 C 0.84375,-3.875 1.21875,-4.1875 1.578125,-4.1875 c 0.09375,0 0.25,0.015625 0.25,0.328125 0,0.25 -0.109375,0.53125 -0.1875,0.703125 -0.4375,1.171875 -0.546875,1.625 -0.546875,2.015625 0,0.90625 0.65625,1.25 1.40625,1.25 0.171875,0 0.640625,0 1.03125,-0.703125 0.265625,0.640625 0.953125,0.703125 1.25,0.703125 0.75,0 1.1875,-0.625 1.453125,-1.21875 0.328125,-0.78125 0.65625,-2.125 0.65625,-2.59375 0,-0.546875 -0.265625,-0.703125 -0.4375,-0.703125 -0.25,0 -0.5,0.265625 -0.5,0.484375 0,0.125 0.0625,0.1875 0.140625,0.265625 0.109375,0.109375 0.359375,0.359375 0.359375,0.84375 0,0.34375 -0.28125,1.3125 -0.546875,1.828125 -0.25,0.53125 -0.609375,0.875 -1.09375,0.875 -0.46875,0 -0.734375,-0.296875 -0.734375,-0.875 0,-0.265625 0.0625,-0.578125 0.109375,-0.71875 z m 0,0"
             id="path2326" />
        </symbol>
        <symbol
           style="overflow:visible"
           overflow="visible"
           id="textext-403633a0-4">
          <path
             inkscape:connector-curvature="0"
             style="stroke:none"
             d="m 2.046875,-3.984375 0.9375,0 c 0.203125,0 0.3125,0 0.3125,-0.203125 0,-0.109375 -0.109375,-0.109375 -0.28125,-0.109375 l -0.875,0 C 2.5,-5.71875 2.546875,-5.90625 2.546875,-5.96875 c 0,-0.171875 -0.125,-0.265625 -0.296875,-0.265625 -0.03125,0 -0.3125,0 -0.390625,0.359375 l -0.390625,1.578125 -0.9375,0 c -0.203125,0 -0.296875,0 -0.296875,0.1875 0,0.125 0.078125,0.125 0.28125,0.125 l 0.875,0 C 0.671875,-1.15625 0.625,-0.984375 0.625,-0.8125 0.625,-0.265625 1,0.109375 1.546875,0.109375 2.5625,0.109375 3.125,-1.34375 3.125,-1.421875 3.125,-1.53125 3.046875,-1.53125 3.015625,-1.53125 2.921875,-1.53125 2.90625,-1.5 2.859375,-1.390625 2.4375,-0.34375 1.90625,-0.109375 1.5625,-0.109375 c -0.203125,0 -0.3125,-0.125 -0.3125,-0.453125 0,-0.25 0.03125,-0.3125 0.0625,-0.484375 z m 0,0"
             id="path2329" />
        </symbol>
      </g>
    </defs>
    <defs
       id="defs2427">
      <g
         id="g2425">
        <symbol
           style="overflow:visible"
           overflow="visible"
           id="textext-69d9aac6-0">
          <path
             inkscape:connector-curvature="0"
             style="stroke:none"
             d=""
             id="path2413" />
        </symbol>
        <symbol
           style="overflow:visible"
           overflow="visible"
           id="textext-69d9aac6-1">
          <path
             inkscape:connector-curvature="0"
             style="stroke:none"
             d="m 4.40625,-6.953125 c -0.0625,-0.140625 -0.09375,-0.1875 -0.265625,-0.1875 -0.15625,0 -0.1875,0.046875 -0.25,0.1875 l -3.375,6.75 C 0.46875,-0.109375 0.46875,-0.09375 0.46875,-0.078125 0.46875,0 0.53125,0 0.6875,0 l 6.921875,0 c 0.15625,0 0.21875,0 0.21875,-0.078125 0,-0.015625 0,-0.03125 -0.046875,-0.125 z m -0.578125,0.8125 2.6875,5.390625 -5.375,0 z m 0,0"
             id="path2416" />
        </symbol>
        <symbol
           style="overflow:visible"
           overflow="visible"
           id="textext-69d9aac6-2">
          <path
             inkscape:connector-curvature="0"
             style="stroke:none"
             d=""
             id="path2419" />
        </symbol>
        <symbol
           style="overflow:visible"
           overflow="visible"
           id="textext-69d9aac6-3">
          <path
             inkscape:connector-curvature="0"
             style="stroke:none"
             d="M 4.609375,-3.375 C 4.65625,-3.59375 4.75,-3.96875 4.75,-4.03125 c 0,-0.171875 -0.140625,-0.265625 -0.28125,-0.265625 -0.125,0 -0.296875,0.078125 -0.375,0.28125 -0.03125,0.0625 -0.5,1.96875 -0.5625,2.234375 C 3.453125,-1.484375 3.4375,-1.3125 3.4375,-1.125 c 0,0.109375 0,0.125 0.015625,0.171875 -0.234375,0.53125 -0.53125,0.84375 -0.921875,0.84375 -0.796875,0 -0.796875,-0.734375 -0.796875,-0.90625 0,-0.3125 0.046875,-0.703125 0.515625,-1.9375 0.109375,-0.296875 0.171875,-0.4375 0.171875,-0.640625 0,-0.4375 -0.328125,-0.8125 -0.8125,-0.8125 -0.953125,0 -1.3125,1.453125 -1.3125,1.53125 0,0.109375 0.09375,0.109375 0.109375,0.109375 0.109375,0 0.109375,-0.03125 0.15625,-0.1875 C 0.84375,-3.875 1.21875,-4.1875 1.578125,-4.1875 c 0.09375,0 0.25,0.015625 0.25,0.328125 0,0.25 -0.109375,0.53125 -0.1875,0.703125 -0.4375,1.171875 -0.546875,1.625 -0.546875,2.015625 0,0.90625 0.65625,1.25 1.40625,1.25 0.171875,0 0.640625,0 1.03125,-0.703125 0.265625,0.640625 0.953125,0.703125 1.25,0.703125 0.75,0 1.1875,-0.625 1.453125,-1.21875 0.328125,-0.78125 0.65625,-2.125 0.65625,-2.59375 0,-0.546875 -0.265625,-0.703125 -0.4375,-0.703125 -0.25,0 -0.5,0.265625 -0.5,0.484375 0,0.125 0.0625,0.1875 0.140625,0.265625 0.109375,0.109375 0.359375,0.359375 0.359375,0.84375 0,0.34375 -0.28125,1.3125 -0.546875,1.828125 -0.25,0.53125 -0.609375,0.875 -1.09375,0.875 -0.46875,0 -0.734375,-0.296875 -0.734375,-0.875 0,-0.265625 0.0625,-0.578125 0.109375,-0.71875 z m 0,0"
             id="path2422" />
        </symbol>
      </g>
    </defs>
  </defs>
  <metadata
     id="metadata5">
    <rdf:RDF>
      <cc:Work
         rdf:about="">
        <dc:format>image/svg+xml</dc:format>
        <dc:type
           rdf:resource="http://purl.org/dc/dcmitype/StillImage" />
        <dc:title />
      </cc:Work>
    </rdf:RDF>
  </metadata>
  <g
     inkscape:label="Layer 1"
     inkscape:groupmode="layer"
     id="layer1"
     transform="translate(-53.185468,-65.695924)">
    <path
       style="fill:none;fill-rule:evenodd;stroke:#666666;stroke-width:1;stroke-linecap:butt;stroke-linejoin:miter;stroke-miterlimit:4;stroke-dasharray:none;stroke-opacity:1;marker-start:url(#marker4528);marker-end:url(#marker4468)"
       d="m 55.940475,116.32758 126.244045,0"
       id="path815"
       inkscape:connector-curvature="0" />
    <path
       style="fill:none;fill-rule:evenodd;stroke:#666666;stroke-width:1;stroke-linecap:butt;stroke-linejoin:miter;stroke-miterlimit:4;stroke-dasharray:none;stroke-opacity:1;marker-start:url(#Arrow1Sstart);marker-end:url(#Arrow2Send)"
       d="m 119.0625,68.450931 0,62.708829"
       id="path817"
       inkscape:connector-curvature="0" />
    <text
       xml:space="preserve"
       style="font-style:normal;font-weight:normal;font-size:10.58333302px;line-height:1000%;font-family:sans-serif;letter-spacing:0px;word-spacing:0px;fill:#000000;fill-opacity:1;stroke:#666666;stroke-width:0.26458332px;stroke-linecap:butt;stroke-linejoin:miter;stroke-opacity:1;"
       x="121.70833"
       y="39.220234"
       id="text2299"
       sodipodi:linespacing="1000%"><tspan
         sodipodi:role="line"
         id="tspan2297"
         x="121.70833"
         y="39.220234"
         style="stroke-width:0.26458332px;stroke:#666666;" /></text>
    <text
       xml:space="preserve"
       style="font-style:normal;font-weight:normal;font-size:10.58333302px;line-height:1000%;font-family:sans-serif;letter-spacing:0px;word-spacing:0px;fill:#000000;fill-opacity:1;stroke:#666666;stroke-width:0.26458332px;stroke-linecap:butt;stroke-linejoin:miter;stroke-opacity:1;"
       x="163.09673"
       y="53.583332"
       id="text2303"
       sodipodi:linespacing="1000%"><tspan
         sodipodi:role="line"
         id="tspan2301"
         x="163.09673"
         y="53.583332"
         style="stroke-width:0.26458332px;stroke:#666666;" /></text>
    <path
       style="fill:none;fill-rule:evenodd;stroke:#666666;stroke-width:0.28222221;stroke-linecap:butt;stroke-linejoin:miter;stroke-miterlimit:4;stroke-dasharray:0.28222221, 0.84666662000000004;stroke-dashoffset:0;stroke-opacity:1"
       d="m 112.69547,121.23143 12.79012,0"
       id="path4609"
       inkscape:connector-curvature="0" />
    <path
       inkscape:connector-curvature="0"
       id="path5296"
       d="m 113.97328,111.98843 3.86339,0"
       style="fill:none;fill-rule:evenodd;stroke:#666666;stroke-width:0.5;stroke-linecap:butt;stroke-linejoin:miter;stroke-miterlimit:4;stroke-dasharray:none;stroke-opacity:1;marker-end:url(#TriangleOutS)" />
    <path
       style="fill:none;fill-rule:evenodd;stroke:#666666;stroke-width:0.5;stroke-linecap:butt;stroke-linejoin:miter;stroke-miterlimit:4;stroke-dasharray:none;stroke-opacity:1;marker-end:url(#marker6084)"
       d="m 130.58707,111.98843 -3.86339,0"
       id="path6082"
       inkscape:connector-curvature="0" />
    <path
       style="fill:none;fill-rule:evenodd;stroke:#666666;stroke-width:0.5;stroke-linecap:butt;stroke-linejoin:miter;stroke-miterlimit:4;stroke-dasharray:none;stroke-opacity:1"
       d="m 99.873265,81.807228 12.279055,0"
       id="path5760"
       inkscape:connector-curvature="0" />
    <path
       sodipodi:nodetypes="cc"
       inkscape:connector-curvature="0"
       id="path5762"
       d="m 102.31789,115.12519 0,-13.29564"
       style="fill:none;fill-rule:evenodd;stroke:#666666;stroke-width:0.5;stroke-linecap:butt;stroke-linejoin:miter;stroke-miterlimit:4;stroke-dasharray:none;stroke-opacity:1;marker-start:url(#marker9450)" />
    <path
       sodipodi:nodetypes="cc"
       style="fill:none;fill-rule:evenodd;stroke:#666666;stroke-width:0.5;stroke-linecap:butt;stroke-linejoin:miter;stroke-miterlimit:4;stroke-dasharray:none;stroke-opacity:1;marker-end:url(#marker9492)"
       d="m 102.31789,96.237739 0,-13.489226"
       id="path5764"
       inkscape:connector-curvature="0" />
    <path
       inkscape:connector-curvature="0"
       id="path5296-7"
       d="m 68.390673,124.05428 0,-1.79152"
       style="fill:none;fill-rule:evenodd;stroke:#666666;stroke-width:0.5;stroke-linecap:butt;stroke-linejoin:miter;stroke-miterlimit:4;stroke-dasharray:none;stroke-opacity:1;marker-end:url(#TriangleOutS-6)" />
    <path
       style="fill:none;fill-rule:evenodd;stroke:#666666;stroke-width:0.5;stroke-linecap:butt;stroke-linejoin:miter;stroke-miterlimit:4;stroke-dasharray:none;stroke-opacity:1;marker-end:url(#marker6084-9)"
       d="m 68.390673,111.25112 0,3.86339"
       id="path6082-2"
       inkscape:connector-curvature="0" />
    <path
       style="fill:none;fill-rule:evenodd;stroke:#666666;stroke-width:0.5;stroke-linecap:butt;stroke-linejoin:miter;stroke-miterlimit:4;stroke-dasharray:none;stroke-opacity:1"
       d="m 178.67952,121.53505 0,7.15925"
       id="path9660"
       inkscape:connector-curvature="0" />
    <path
       inkscape:connector-curvature="0"
       id="path9662"
       d="m 120.25279,126.24968 21.20616,0"
       style="fill:none;fill-rule:evenodd;stroke:#666666;stroke-width:0.5;stroke-linecap:butt;stroke-linejoin:miter;stroke-miterlimit:4;stroke-dasharray:none;stroke-opacity:1;marker-start:url(#TriangleInS)"
       sodipodi:nodetypes="cc" />
    <path
       style="fill:none;fill-rule:evenodd;stroke:#666666;stroke-width:0.5;stroke-linecap:butt;stroke-linejoin:miter;stroke-miterlimit:4;stroke-dasharray:none;stroke-opacity:1;marker-end:url(#marker9256)"
       d="m 156.45635,126.24968 21.27671,0"
       id="path9664"
       inkscape:connector-curvature="0"
       sodipodi:nodetypes="cc" />
    <path
       inkscape:connector-curvature="0"
       id="path4631"
       d="m 178.67952,121.53505 0,7.15925"
       style="fill:none;fill-rule:evenodd;stroke:#666666;stroke-width:0.5;stroke-linecap:butt;stroke-linejoin:miter;stroke-miterlimit:4;stroke-dasharray:none;stroke-opacity:1" />
    <path
       sodipodi:nodetypes="cc"
       style="fill:none;fill-rule:evenodd;stroke:#666666;stroke-width:0.5;stroke-linecap:butt;stroke-linejoin:miter;stroke-miterlimit:4;stroke-dasharray:none;stroke-opacity:1;marker-start:url(#TriangleInS)"
       d="m 120.25279,126.24968 21.20616,0"
       id="path4633"
       inkscape:connector-curvature="0" />
    <path
       sodipodi:nodetypes="cc"
       inkscape:connector-curvature="0"
       id="path4635"
       d="m 156.45635,126.24968 21.27671,0"
       style="fill:none;fill-rule:evenodd;stroke:#666666;stroke-width:0.5;stroke-linecap:butt;stroke-linejoin:miter;stroke-miterlimit:4;stroke-dasharray:none;stroke-opacity:1;marker-end:url(#marker9256)" />
    <path
       inkscape:connector-curvature="0"
       id="path4887"
       d="m 118.81313,121.53505 0,7.15925"
       style="fill:none;fill-rule:evenodd;stroke:#666666;stroke-width:0.5;stroke-linecap:butt;stroke-linejoin:miter;stroke-miterlimit:4;stroke-dasharray:none;stroke-opacity:1" />
    <path
       sodipodi:nodetypes="cc"
       style="fill:none;fill-rule:evenodd;stroke:#666666;stroke-width:0.5;stroke-linecap:butt;stroke-linejoin:miter;stroke-miterlimit:4;stroke-dasharray:none;stroke-opacity:1;marker-start:url(#TriangleInS)"
       d="m 60.3864,126.24968 21.20616,0"
       id="path4889"
       inkscape:connector-curvature="0" />
    <path
       sodipodi:nodetypes="cc"
       inkscape:connector-curvature="0"
       id="path4891"
       d="m 96.58996,126.24968 21.27671,0"
       style="fill:none;fill-rule:evenodd;stroke:#666666;stroke-width:0.5;stroke-linecap:butt;stroke-linejoin:miter;stroke-miterlimit:4;stroke-dasharray:none;stroke-opacity:1;marker-end:url(#marker9256)" />
    <path
       style="fill:none;fill-rule:evenodd;stroke:#666666;stroke-width:0.5;stroke-linecap:butt;stroke-linejoin:miter;stroke-miterlimit:4;stroke-dasharray:none;stroke-opacity:1"
       d="m 59.427399,121.53505 0,7.15925"
       id="path4893"
       inkscape:connector-curvature="0" />
    <path
       inkscape:connector-curvature="0"
       id="path4895"
       d="m 60.3864,126.24968 21.20616,0"
       style="fill:none;fill-rule:evenodd;stroke:#666666;stroke-width:0.5;stroke-linecap:butt;stroke-linejoin:miter;stroke-miterlimit:4;stroke-dasharray:none;stroke-opacity:1;marker-start:url(#TriangleInS)"
       sodipodi:nodetypes="cc" />
    <path
       style="fill:none;fill-rule:evenodd;stroke:#666666;stroke-width:0.5;stroke-linecap:butt;stroke-linejoin:miter;stroke-miterlimit:4;stroke-dasharray:none;stroke-opacity:1;marker-end:url(#marker9256)"
       d="m 96.58996,126.24968 21.27671,0"
       id="path4897"
       inkscape:connector-curvature="0"
       sodipodi:nodetypes="cc" />
  </g>
  <g
     inkscape:groupmode="layer"
     id="layer3"
     inkscape:label="Layer 3">
    <g
       transform="translate(-53.185468,-65.695924)"
       id="g11453">
      <g
         transform="matrix(0.5259074,0,0,0.5259074,4.111145,0.08328967)"
         style="fill:#000000;fill-opacity:1;stroke:#666666"
         id="g2338">
        <use
           height="100%"
           width="100%"
           xlink:href="#textext-403633a0-1"
           x="223.43201"
           y="134.765"
           id="use2336"
           style="stroke:#666666" />
      </g>
      <g
         transform="matrix(0.5259074,0,0,0.5259074,4.111145,0.08328967)"
         style="fill:#000000;fill-opacity:1;stroke:#666666"
         id="g2342">
        <use
           height="100%"
           width="100%"
           xlink:href="#textext-403633a0-3"
           x="231.73399"
           y="134.765"
           id="use2340"
           style="stroke:#666666" />
      </g>
    </g>
    <g
       transform="translate(-53.185468,-65.695924)"
       id="g11459">
      <use
         transform="matrix(0.5259074,0,0,0.5259074,52.166715,36.772935)"
         style="fill:#000000;fill-opacity:1;stroke:#666666"
         id="use2344"
         y="146.72"
         x="238.37601"
         xlink:href="#textext-403633a0-1"
         width="100%"
         height="100%" />
      <use
         transform="matrix(0.5259074,0,0,0.5259074,52.166715,36.772935)"
         style="fill:#000000;fill-opacity:1;stroke:#666666"
         id="use2348"
         y="146.72"
         x="246.67799"
         xlink:href="#textext-403633a0-4"
         width="100%"
         height="100%" />
    </g>
    <g
       id="g8927"
       style="stroke:#666666"
       transform="matrix(0.70555601,0,0,0.70555601,-27.220996,-47.636481)">
      <g
         id="g5193"
         style="fill:#000000;fill-opacity:1;stroke:#666666">
        <path
           inkscape:connector-curvature="0"
           id="path5195"
           transform="translate(148.712,134.765)"
           d="m 2.9375,-3.71875 1.671875,0 c 0.125,0 0.484375,0 0.484375,-0.34375 0,-0.234375 -0.203125,-0.234375 -0.40625,-0.234375 l -2.78125,0 c -0.203125,0 -0.59375,0 -1.03125,0.46875 -0.328125,0.359375 -0.609375,0.84375 -0.609375,0.890625 0,0.015625 0,0.109375 0.125,0.109375 0.078125,0 0.09375,-0.046875 0.15625,-0.125 C 1.03125,-3.71875 1.609375,-3.71875 1.8125,-3.71875 l 0.828125,0 -0.96875,3.203125 C 1.625,-0.40625 1.5625,-0.1875 1.5625,-0.15625 c 0,0.109375 0.078125,0.28125 0.296875,0.28125 0.328125,0 0.375,-0.28125 0.40625,-0.4375 z m 0,0"
           style="stroke:#666666;stroke-width:0" />
      </g>
      <g
         id="g5197"
         style="fill:#000000;fill-opacity:1;stroke:#666666"
         transform="matrix(0.68780508,0,0,0.68780508,47.938272,41.995463)">
        <path
           inkscape:connector-curvature="0"
           id="path5199"
           transform="translate(153.068,136.259)"
           d="m 3.21875,-1.578125 2.140625,0 c 0.09375,0 0.25,0 0.25,-0.15625 0,-0.1875 -0.15625,-0.1875 -0.25,-0.1875 l -2.140625,0 0,-2.140625 c 0,-0.078125 0,-0.25 -0.15625,-0.25 -0.171875,0 -0.171875,0.15625 -0.171875,0.25 l 0,2.140625 -2.140625,0 c -0.09375,0 -0.265625,0 -0.265625,0.171875 0,0.171875 0.15625,0.171875 0.265625,0.171875 l 2.140625,0 0,2.140625 c 0,0.09375 0,0.265625 0.15625,0.265625 0.171875,0 0.171875,-0.171875 0.171875,-0.265625 z m 0,0"
           style="stroke:#666666;stroke-width:0" />
      </g>
    </g>
    <g
       style="stroke:#666666"
       transform="matrix(0.70555601,0,0,0.70555601,-61.444535,-60.180875)"
       ns0:version="0.11.0"
       ns0:texconverter="pdflatex"
       ns0:pdfconverter="pdf2svg"
       ns0:text="$A_{+}$"
       ns0:preamble="/home/gp283/.config/inkscape/extensions/textext/default_packages.tex"
       ns0:scale="2.0"
       ns0:alignment="middle center"
       inkscapeversion="0.91"
       ns0:jacobian_sqrt="0.705556"
       id="g6990">
      <g
         style="stroke:#666666"
         id="g6992">
        <g
           style="fill:#000000;fill-opacity:1;stroke:#666666"
           id="g6994">
          <path
             inkscape:connector-curvature="0"
             style="stroke:#666666;stroke-width:0"
             d="M 1.78125,-1.140625 C 1.390625,-0.484375 1,-0.34375 0.5625,-0.3125 0.4375,-0.296875 0.34375,-0.296875 0.34375,-0.109375 0.34375,-0.046875 0.40625,0 0.484375,0 0.75,0 1.0625,-0.03125 1.328125,-0.03125 c 0.34375,0 0.6875,0.03125 1,0.03125 0.0625,0 0.1875,0 0.1875,-0.1875 0,-0.109375 -0.078125,-0.125 -0.15625,-0.125 -0.21875,-0.015625 -0.46875,-0.09375 -0.46875,-0.34375 0,-0.125 0.0625,-0.234375 0.140625,-0.375 l 0.765625,-1.265625 2.5,0 c 0.015625,0.203125 0.15625,1.5625 0.15625,1.65625 0,0.296875 -0.515625,0.328125 -0.71875,0.328125 C 4.59375,-0.3125 4.5,-0.3125 4.5,-0.109375 4.5,0 4.609375,0 4.640625,0 5.046875,0 5.46875,-0.03125 5.875,-0.03125 6.125,-0.03125 6.765625,0 7.015625,0 7.0625,0 7.1875,0 7.1875,-0.203125 7.1875,-0.3125 7.09375,-0.3125 6.953125,-0.3125 6.34375,-0.3125 6.34375,-0.375 6.3125,-0.671875 l -0.609375,-6.21875 c -0.015625,-0.203125 -0.015625,-0.25 -0.1875,-0.25 -0.15625,0 -0.203125,0.078125 -0.265625,0.171875 z M 2.984375,-2.609375 4.9375,-5.90625 5.265625,-2.609375 Z m 0,0"
             transform="translate(148.712,134.765)"
             id="path6996" />
        </g>
        <g
           style="fill:#000000;fill-opacity:1;stroke:#666666"
           id="g6998">
          <path
             inkscape:connector-curvature="0"
             style="stroke:#666666;stroke-width:0"
             d="m 3.21875,-1.578125 2.140625,0 c 0.09375,0 0.25,0 0.25,-0.15625 0,-0.1875 -0.15625,-0.1875 -0.25,-0.1875 l -2.140625,0 0,-2.140625 c 0,-0.078125 0,-0.25 -0.15625,-0.25 -0.171875,0 -0.171875,0.15625 -0.171875,0.25 l 0,2.140625 -2.140625,0 c -0.09375,0 -0.265625,0 -0.265625,0.171875 0,0.171875 0.15625,0.171875 0.265625,0.171875 l 2.140625,0 0,2.140625 c 0,0.09375 0,0.265625 0.15625,0.265625 0.171875,0 0.171875,-0.171875 0.171875,-0.265625 z m 0,0"
             transform="translate(156.184,136.259)"
             id="path7000" />
        </g>
      </g>
    </g>
    <g
       style="stroke:#666666"
       id="surface1"
       transform="matrix(0.70555601,0,0,0.70555601,-92.159691,-50.145843)">
      <g
         style="fill:#000000;fill-opacity:1;stroke:#666666"
         id="g8916">
        <path
           inkscape:connector-curvature="0"
           style="stroke:#666666;stroke-width:0"
           d="M 1.78125,-1.140625 C 1.390625,-0.484375 1,-0.34375 0.5625,-0.3125 0.4375,-0.296875 0.34375,-0.296875 0.34375,-0.109375 0.34375,-0.046875 0.40625,0 0.484375,0 0.75,0 1.0625,-0.03125 1.328125,-0.03125 c 0.34375,0 0.6875,0.03125 1,0.03125 0.0625,0 0.1875,0 0.1875,-0.1875 0,-0.109375 -0.078125,-0.125 -0.15625,-0.125 -0.21875,-0.015625 -0.46875,-0.09375 -0.46875,-0.34375 0,-0.125 0.0625,-0.234375 0.140625,-0.375 l 0.765625,-1.265625 2.5,0 c 0.015625,0.203125 0.15625,1.5625 0.15625,1.65625 0,0.296875 -0.515625,0.328125 -0.71875,0.328125 C 4.59375,-0.3125 4.5,-0.3125 4.5,-0.109375 4.5,0 4.609375,0 4.640625,0 5.046875,0 5.46875,-0.03125 5.875,-0.03125 6.125,-0.03125 6.765625,0 7.015625,0 7.0625,0 7.1875,0 7.1875,-0.203125 7.1875,-0.3125 7.09375,-0.3125 6.953125,-0.3125 6.34375,-0.3125 6.34375,-0.375 6.3125,-0.671875 l -0.609375,-6.21875 c -0.015625,-0.203125 -0.015625,-0.25 -0.1875,-0.25 -0.15625,0 -0.203125,0.078125 -0.265625,0.171875 z M 2.984375,-2.609375 4.9375,-5.90625 5.265625,-2.609375 Z m 0,0"
           transform="translate(148.712,134.765)"
           id="path8918" />
      </g>
      <g
         transform="matrix(0.64503333,0,0,1,55.706339,-0.4749997)"
         style="fill:#000000;fill-opacity:1;stroke:#666666"
         id="g8920">
        <path
           inkscape:connector-curvature="0"
           style="stroke:#666666;stroke-width:0"
           d="m 5.1875,-1.578125 c 0.109375,0 0.28125,0 0.28125,-0.15625 0,-0.1875 -0.171875,-0.1875 -0.28125,-0.1875 l -4.15625,0 c -0.109375,0 -0.28125,0 -0.28125,0.171875 0,0.171875 0.15625,0.171875 0.28125,0.171875 z m 0,0"
           transform="translate(156.184,136.259)"
           id="path8922" />
      </g>
    </g>
    <g
       style="stroke:#666666"
       id="g9666"
       ns0:jacobian_sqrt="0.705556"
       inkscapeversion="0.91"
       ns0:alignment="middle center"
       ns0:scale="2.0"
       ns0:preamble="/home/gp283/.config/inkscape/extensions/textext/default_packages.tex"
       ns0:text="$\\tau_{-}$"
       ns0:pdfconverter="pdf2svg"
       ns0:texconverter="pdflatex"
       ns0:version="0.11.0"
       transform="matrix(0.70555601,0,0,0.70555601,-11.935361,-32.836454)">
      <g
         style="stroke:#666666"
         id="g9668">
        <g
           id="g9670"
           style="fill:#000000;fill-opacity:1;stroke:#666666">
          <path
             inkscape:connector-curvature="0"
             id="path9672"
             transform="translate(148.712,134.765)"
             d="m 2.9375,-3.71875 1.671875,0 c 0.125,0 0.484375,0 0.484375,-0.34375 0,-0.234375 -0.203125,-0.234375 -0.40625,-0.234375 l -2.78125,0 c -0.203125,0 -0.59375,0 -1.03125,0.46875 -0.328125,0.359375 -0.609375,0.84375 -0.609375,0.890625 0,0.015625 0,0.109375 0.125,0.109375 0.078125,0 0.09375,-0.046875 0.15625,-0.125 C 1.03125,-3.71875 1.609375,-3.71875 1.8125,-3.71875 l 0.828125,0 -0.96875,3.203125 C 1.625,-0.40625 1.5625,-0.1875 1.5625,-0.15625 c 0,0.109375 0.078125,0.28125 0.296875,0.28125 0.328125,0 0.375,-0.28125 0.40625,-0.4375 z m 0,0"
             style="stroke:#666666;stroke-width:0" />
        </g>
        <g
           id="g9674"
           style="fill:#000000;fill-opacity:1;stroke:#666666">
          <path
             inkscape:connector-curvature="0"
             id="path9676"
             d="m 156.18663,134.68087 c 0.0584,0 0.15012,0 0.15012,-0.15625 0,-0.1875 -0.0917,-0.1875 -0.15012,-0.1875 l -2.21851,0 c -0.0584,0 -0.15012,0 -0.15012,0.17188 0,0.17187 0.0834,0.17187 0.15012,0.17187 z m 0,0"
             style="stroke:#666666;stroke-width:0" />
        </g>
      </g>
    </g>
    <g
       transform="matrix(0.70555601,0,0,0.70555601,-11.935361,-32.836454)"
       ns0:version="0.11.0"
       ns0:texconverter="pdflatex"
       ns0:pdfconverter="pdf2svg"
       ns0:text="$\\tau_{-}$"
       ns0:preamble="/home/gp283/.config/inkscape/extensions/textext/default_packages.tex"
       ns0:scale="2.0"
       ns0:alignment="middle center"
       inkscapeversion="0.91"
       ns0:jacobian_sqrt="0.705556"
       id="g4637"
       style="stroke:#666666">
      <g
         id="g4639"
         style="stroke:#666666">
        <g
           style="fill:#000000;fill-opacity:1;stroke:#666666"
           id="g4641">
          <path
             style="stroke:#666666;stroke-width:0"
             d="m 2.9375,-3.71875 1.671875,0 c 0.125,0 0.484375,0 0.484375,-0.34375 0,-0.234375 -0.203125,-0.234375 -0.40625,-0.234375 l -2.78125,0 c -0.203125,0 -0.59375,0 -1.03125,0.46875 -0.328125,0.359375 -0.609375,0.84375 -0.609375,0.890625 0,0.015625 0,0.109375 0.125,0.109375 0.078125,0 0.09375,-0.046875 0.15625,-0.125 C 1.03125,-3.71875 1.609375,-3.71875 1.8125,-3.71875 l 0.828125,0 -0.96875,3.203125 C 1.625,-0.40625 1.5625,-0.1875 1.5625,-0.15625 c 0,0.109375 0.078125,0.28125 0.296875,0.28125 0.328125,0 0.375,-0.28125 0.40625,-0.4375 z m 0,0"
             transform="translate(148.712,134.765)"
             id="path4643"
             inkscape:connector-curvature="0" />
        </g>
        <g
           style="fill:#000000;fill-opacity:1;stroke:#666666"
           id="g4645">
          <path
             style="stroke:#666666;stroke-width:0"
             d="m 156.18663,134.68087 c 0.0584,0 0.15012,0 0.15012,-0.15625 0,-0.1875 -0.0917,-0.1875 -0.15012,-0.1875 l -2.21851,0 c -0.0584,0 -0.15012,0 -0.15012,0.17188 0,0.17187 0.0834,0.17187 0.15012,0.17187 z m 0,0"
             id="path4647"
             inkscape:connector-curvature="0" />
        </g>
      </g>
    </g>
    <g
       transform="matrix(0.70555601,0,0,0.70555601,-71.801751,-32.836454)"
       ns0:version="0.11.0"
       ns0:texconverter="pdflatex"
       ns0:pdfconverter="pdf2svg"
       ns0:text="$\\tau_{-}$"
       ns0:preamble="/home/gp283/.config/inkscape/extensions/textext/default_packages.tex"
       ns0:scale="2.0"
       ns0:alignment="middle center"
       inkscapeversion="0.91"
       ns0:jacobian_sqrt="0.705556"
       id="g4899"
       style="stroke:#666666">
      <g
         id="g4901"
         style="stroke:#666666">
        <g
           style="fill:#000000;fill-opacity:1;stroke:#666666"
           id="g4903">
          <path
             style="stroke:#666666;stroke-width:0"
             d="m 2.9375,-3.71875 1.671875,0 c 0.125,0 0.484375,0 0.484375,-0.34375 0,-0.234375 -0.203125,-0.234375 -0.40625,-0.234375 l -2.78125,0 c -0.203125,0 -0.59375,0 -1.03125,0.46875 -0.328125,0.359375 -0.609375,0.84375 -0.609375,0.890625 0,0.015625 0,0.109375 0.125,0.109375 0.078125,0 0.09375,-0.046875 0.15625,-0.125 C 1.03125,-3.71875 1.609375,-3.71875 1.8125,-3.71875 l 0.828125,0 -0.96875,3.203125 C 1.625,-0.40625 1.5625,-0.1875 1.5625,-0.15625 c 0,0.109375 0.078125,0.28125 0.296875,0.28125 0.328125,0 0.375,-0.28125 0.40625,-0.4375 z m 0,0"
             transform="translate(148.712,134.765)"
             id="path4905"
             inkscape:connector-curvature="0" />
        </g>
        <g
           style="fill:#000000;fill-opacity:1;stroke:#666666"
           id="g4907">
          <path
             style="stroke:#666666;stroke-width:0"
             d="m 156.18663,134.68087 c 0.0584,0 0.15012,0 0.15012,-0.15625 0,-0.1875 -0.0917,-0.1875 -0.15012,-0.1875 l -2.21851,0 c -0.0584,0 -0.15012,0 -0.15012,0.17188 0,0.17187 0.0834,0.17187 0.15012,0.17187 z m 0,0"
             id="path4909"
             inkscape:connector-curvature="0" />
        </g>
      </g>
    </g>
    <g
       style="stroke:#666666"
       id="g4911"
       ns0:jacobian_sqrt="0.705556"
       inkscapeversion="0.91"
       ns0:alignment="middle center"
       ns0:scale="2.0"
       ns0:preamble="/home/gp283/.config/inkscape/extensions/textext/default_packages.tex"
       ns0:text="$\\tau_{-}$"
       ns0:pdfconverter="pdf2svg"
       ns0:texconverter="pdflatex"
       ns0:version="0.11.0"
       transform="matrix(0.70555601,0,0,0.70555601,-71.801751,-32.836454)">
      <g
         style="stroke:#666666"
         id="g4913">
        <g
           id="g4915"
           style="fill:#000000;fill-opacity:1;stroke:#666666">
          <path
             inkscape:connector-curvature="0"
             id="path4917"
             transform="translate(148.712,134.765)"
             d="m 2.9375,-3.71875 1.671875,0 c 0.125,0 0.484375,0 0.484375,-0.34375 0,-0.234375 -0.203125,-0.234375 -0.40625,-0.234375 l -2.78125,0 c -0.203125,0 -0.59375,0 -1.03125,0.46875 -0.328125,0.359375 -0.609375,0.84375 -0.609375,0.890625 0,0.015625 0,0.109375 0.125,0.109375 0.078125,0 0.09375,-0.046875 0.15625,-0.125 C 1.03125,-3.71875 1.609375,-3.71875 1.8125,-3.71875 l 0.828125,0 -0.96875,3.203125 C 1.625,-0.40625 1.5625,-0.1875 1.5625,-0.15625 c 0,0.109375 0.078125,0.28125 0.296875,0.28125 0.328125,0 0.375,-0.28125 0.40625,-0.4375 z m 0,0"
             style="stroke:#666666;stroke-width:0" />
        </g>
        <g
           id="g4919"
           style="fill:#000000;fill-opacity:1;stroke:#666666">
          <path
             inkscape:connector-curvature="0"
             id="path4921"
             d="m 156.18663,134.68087 c 0.0584,0 0.15012,0 0.15012,-0.15625 0,-0.1875 -0.0917,-0.1875 -0.15012,-0.1875 l -2.21851,0 c -0.0584,0 -0.15012,0 -0.15012,0.17188 0,0.17187 0.0834,0.17187 0.15012,0.17187 z m 0,0"
             style="stroke:#666666;stroke-width:0" />
        </g>
      </g>
    </g>
  </g>
  <g
     inkscape:groupmode="layer"
     id="layer2"
     inkscape:label="Layer 2"
     sodipodi:insensitive="true">
    <g
       transform="translate(-53.185468,-65.695924)"
       id="g11364">
      <path
         inkscape:connector-curvature="0"
         id="path4589"
         d="m 112.38076,115.45634 0,-33.626704 13.36348,0 0,33.626704"
         style="opacity:1;fill:none;fill-opacity:1;stroke:#000000;stroke-width:0.80000001;stroke-linecap:square;stroke-linejoin:miter;stroke-miterlimit:4;stroke-dasharray:none;stroke-dashoffset:0;stroke-opacity:1" />
      <path
         inkscape:connector-curvature="0"
         id="rect2293"
         d="m 112.38076,117.19538 0,4.03577 -52.919369,0 0,-4.03577"
         style="opacity:1;fill:url(#Wavywhite);fill-opacity:1;stroke:#000000;stroke-width:0.80000001;stroke-linecap:square;stroke-linejoin:miter;stroke-miterlimit:4;stroke-dasharray:none;stroke-dashoffset:0;stroke-opacity:1" />
      <path
         inkscape:connector-curvature="0"
         id="rect2295"
         d="m 178.6636,117.18468 0,4.04647 -52.91936,0 0,-4.04647"
         style="opacity:1;fill:none;fill-opacity:1;stroke:#000000;stroke-width:0.80000001;stroke-linecap:square;stroke-linejoin:miter;stroke-miterlimit:4;stroke-dasharray:none;stroke-dashoffset:0;stroke-opacity:1" />
    </g>
  </g>
</svg>
